<?xml version="1.0" standalone="no"?>
<!DOCTYPE svg PUBLIC "-//W3C//DTD SVG 20010904//EN"
 "http://www.w3.org/TR/2001/REC-SVG-20010904/DTD/svg10.dtd">
<svg version="1.0" xmlns="http://www.w3.org/2000/svg"
 width="700.000000pt" height="700.000000pt" viewBox="0 0 700.000000 700.000000"
 preserveAspectRatio="xMidYMid meet">
<metadata>
Created by potrace 1.11, written by Peter Selinger 2001-2013
</metadata>
<g transform="translate(0.000000,700.000000) scale(0.100000,-0.100000)"
fill="#000000" stroke="none">
<path d="M2494 6441 c-137 -35 -261 -164 -294 -303 -85 -371 336 -648 642
-423 246 181 208 560 -68 696 -59 29 -78 34 -158 36 -50 1 -105 -2 -122 -6z
m180 -286 c106 -70 55 -245 -71 -245 -51 0 -79 12 -110 48 -73 84 -2 224 110
218 23 -1 55 -11 71 -21z"/>
<path d="M4036 5886 c-32 -19 -111 -124 -324 -431 -189 -272 -335 -475 -340
-475 -4 0 -61 15 -127 34 -66 19 -235 66 -375 105 -140 39 -277 77 -305 85
-27 8 -162 46 -300 85 -137 38 -349 98 -469 131 -120 34 -231 64 -245 66 -14
3 -31 6 -38 9 -23 8 -80 -15 -107 -44 -26 -27 -46 -87 -70 -212 -2 -13 -18
-85 -35 -159 -16 -74 -33 -150 -36 -169 -3 -19 -8 -37 -10 -41 -2 -4 -6 -20
-9 -36 -3 -17 -19 -90 -36 -163 -16 -73 -32 -143 -34 -155 -2 -11 -37 -165
-76 -341 -40 -176 -73 -329 -75 -340 -2 -11 -6 -29 -9 -40 -14 -59 -148 -662
-150 -675 -1 -8 -13 -59 -25 -114 -13 -54 -21 -113 -18 -130 3 -19 121 -205
295 -466 l290 -435 154 -90 c290 -169 584 -343 1148 -675 311 -183 581 -342
600 -353 19 -10 132 -77 250 -147 119 -71 231 -131 250 -134 45 -7 109 23 132
62 19 31 25 78 33 257 3 66 8 145 10 175 2 30 7 114 10 185 3 72 8 162 10 200
10 169 15 267 21 370 3 60 7 111 9 113 1 2 452 3 1001 3 1103 0 1053 -3 1094
64 41 67 40 70 -156 484 -35 73 -64 135 -64 136 0 2 -38 82 -85 180 -47 97
-85 178 -85 180 0 1 -30 65 -66 141 -37 77 -81 171 -99 209 -18 39 -70 149
-115 245 -45 96 -97 207 -115 245 -18 39 -53 113 -78 165 -24 52 -82 174 -127
270 -45 96 -88 189 -96 205 -8 17 -25 37 -37 46 -12 9 -139 49 -282 88 -143
40 -271 76 -285 81 -14 5 -77 23 -141 40 l-117 32 3 36 c2 20 6 93 10 162 12
255 16 317 20 385 27 443 26 471 -3 513 -29 39 -46 49 -99 55 -30 4 -50 -1
-77 -17z m-101 -653 c-2 -32 -6 -116 -10 -188 -9 -178 -11 -205 -17 -210 -8
-8 -243 62 -241 72 2 12 263 383 268 383 3 0 3 -26 0 -57z m-2155 -92 c36 -10
187 -52 335 -94 149 -42 441 -123 650 -182 209 -58 395 -110 412 -116 l33 -11
-41 -56 c-52 -73 -388 -550 -473 -672 -25 -36 -101 -143 -168 -239 l-124 -174
-624 -237 c-344 -131 -626 -234 -628 -230 -1 4 18 99 44 211 25 112 48 215 50
228 3 12 12 53 20 90 9 36 18 75 20 86 14 71 314 1418 319 1432 4 12 3 12 175
-36z m1899 -532 c102 -28 194 -55 203 -60 13 -7 16 -20 13 -62 -2 -28 -6 -113
-10 -187 -4 -74 -9 -138 -13 -142 -12 -12 -1003 -386 -1000 -377 3 8 49 74
283 406 44 62 136 194 205 292 69 99 127 180 129 180 2 1 88 -22 190 -50z
m558 -155 c15 -3 30 -7 35 -10 4 -3 16 -7 25 -9 10 -2 56 -14 102 -27 l83 -24
-162 -61 -161 -61 5 96 c2 53 5 101 5 105 1 5 10 6 21 2 11 -3 32 -8 47 -11z
m683 -370 c39 -80 70 -147 70 -149 0 -2 33 -72 74 -157 40 -84 85 -178 99
-208 23 -52 56 -122 157 -335 68 -144 130 -276 157 -335 14 -30 55 -116 90
-190 35 -74 83 -175 106 -225 23 -49 60 -128 83 -175 23 -47 40 -87 37 -90 -2
-2 -396 -5 -875 -5 l-870 0 7 145 c4 80 8 171 10 202 2 32 6 110 10 175 10
206 14 276 19 368 5 86 9 153 21 380 5 98 8 151 20 365 4 57 7 106 9 107 1 2
146 57 322 123 175 67 333 127 349 135 17 7 31 14 33 14 2 1 34 -65 72 -145z
m-1064 -326 c-3 -51 -8 -138 -11 -193 -12 -240 -17 -332 -30 -555 -2 -36 -7
-126 -10 -200 -4 -74 -8 -151 -10 -170 -2 -19 -6 -102 -10 -185 -4 -82 -9
-163 -10 -180 -2 -16 -3 -37 -4 -45 -1 -13 -119 -15 -1001 -15 -550 0 -1000 1
-1000 2 0 2 287 411 384 548 20 28 123 174 229 325 l193 275 635 241 c349 133
638 243 642 243 5 1 6 -41 3 -91z m-1809 -670 c-36 -51 -70 -97 -74 -103 -5
-5 -18 -26 -30 -45 -12 -20 -30 -46 -40 -58 -10 -11 -103 -143 -208 -292 -164
-235 -191 -268 -199 -251 -5 12 -13 21 -18 21 -4 0 -8 4 -8 9 0 4 -67 109
-150 232 -82 123 -146 226 -142 230 4 3 104 43 222 88 118 44 325 123 460 174
135 52 247 93 249 91 2 -2 -26 -45 -62 -96z m1695 -1148 c15 0 17 -8 13 -52
-2 -29 -6 -105 -10 -168 -3 -63 -8 -151 -10 -195 -3 -44 -7 -123 -10 -175 -20
-385 -20 -389 -27 -395 -3 -3 -128 67 -279 156 -151 89 -359 212 -464 273
-716 421 -935 551 -935 556 0 3 1564 4 1722 0z"/>
<path d="M4342 3440 c-120 -27 -139 -196 -28 -250 54 -26 79 -25 127 2 68 38
89 125 46 189 -35 51 -85 72 -145 59z"/>
<path d="M4342 3030 c-57 -13 -102 -70 -102 -130 0 -102 102 -165 195 -120 71
34 96 120 55 187 -34 56 -83 77 -148 63z"/>
<path d="M4345 2622 c-56 -12 -105 -74 -105 -132 0 -100 110 -168 197 -121 69
37 93 129 51 191 -33 48 -91 74 -143 62z"/>
<path d="M4728 2610 c-98 -51 -103 -186 -10 -237 91 -50 202 11 202 113 0 100
-107 170 -192 124z"/>
<path d="M5155 2617 c-137 -45 -120 -238 23 -263 36 -7 103 21 126 52 26 37
32 103 12 142 -31 59 -100 89 -161 69z"/>
<path d="M5780 1245 c-114 -28 -214 -110 -270 -222 -32 -64 -34 -74 -34 -173
0 -62 5 -117 13 -135 7 -16 13 -32 13 -35 0 -3 19 -31 41 -63 149 -212 434
-240 622 -61 73 70 115 163 121 270 14 275 -237 483 -506 419z m192 -303 c100
-99 -2 -267 -135 -223 -121 40 -124 214 -3 255 51 17 101 6 138 -32z"/>
<path d="M686 980 c-1 -3 -2 -63 -2 -135 l1 -130 136 -3 136 -3 -1 138 -1 138
-133 0 c-73 1 -135 -2 -136 -5z"/>
<path d="M1099 985 c-1 0 -3 -62 -4 -137 l-2 -138 137 0 138 0 0 135 c1 74 -2
136 -6 136 -5 1 -257 5 -263 4z"/>
<path d="M1511 980 c-4 -3 -7 -65 -7 -137 l0 -133 137 0 136 0 0 135 c1 93 -3
135 -11 136 -38 4 -249 3 -255 -1z"/>
<path d="M1921 980 c-4 -3 -7 -65 -7 -137 l0 -133 138 0 137 0 -2 137 -2 137
-128 1 c-70 0 -131 -2 -136 -5z"/>
</g>
</svg>
