<?xml version="1.0"?>
<svg width="264" height="264" xmlns="http://www.w3.org/2000/svg" xmlns:svg="http://www.w3.org/2000/svg" clip-rule="evenodd">
 <defs>
  <style type="text/css">.fil0 {fill:#3a3a3a;fill-rule:nonzero}</style>
 </defs>
 <g class="layer">
  <title>Layer 1</title>
  <circle cx="32.75" cy="49.25" fill="#ffaaaa" id="svg_4" r="6.726812"/>
  <circle cx="60" cy="49" fill="#ffffaa" id="svg_6" r="6.72681"/>
  <circle cx="87" cy="49" fill="#d4ffaa" id="svg_7" r="6.72681"/>
  <path class="fil0" d="m33.068,40.551c2.371,0 4.519,0.962 6.073,2.516c1.554,1.554 2.516,3.701 2.516,6.073c0,2.371 -0.962,4.519 -2.516,6.072c-1.554,1.554 -3.702,2.516 -6.073,2.516c-2.368,0 -4.513,-0.961 -6.067,-2.516l-0.006,0c-1.554,-1.553 -2.516,-3.701 -2.516,-6.072c0,-2.372 0.962,-4.519 2.516,-6.073l0.006,0c1.554,-1.555 3.699,-2.516 6.067,-2.516zm61.647,132.779c-0.828,0 -1.5,-0.672 -1.5,-1.5c0,-0.828 0.672,-1.5 1.5,-1.5l60.464,0c0.828,0 1.5,0.672 1.5,1.5c0,0.828 -0.672,1.5 -1.5,1.5l-60.464,0zm43.005,-20.334c0.828,0 1.5,0.672 1.5,1.5c0,0.829 -0.672,1.5 -1.5,1.5l-43.004,0c-0.828,0 -1.5,-0.671 -1.5,-1.5c0,-0.828 0.672,-1.5 1.5,-1.5l43.004,0zm-43.005,-14.333c-0.828,0 -1.5,-0.672 -1.5,-1.5c0,-0.828 0.672,-1.5 1.5,-1.5l69.574,0c0.829,0 1.501,0.672 1.501,1.5c0,0.828 -0.672,1.5 -1.501,1.5l-69.574,0zm0,-17.333c-0.828,0 -1.5,-0.672 -1.5,-1.501c0,-0.828 0.672,-1.5 1.5,-1.5l57.935,0c0.828,0 1.5,0.672 1.5,1.5c0,0.829 -0.672,1.501 -1.5,1.501l-57.935,0zm100.791,-23.283c-1.657,0 -3,-1.344 -3,-3c0,-1.657 1.343,-3 3,-3c3.971,0 7.942,0.001 11.222,1.115c4.021,1.365 6.701,4.078 6.701,9.482l0,33.439c0,0.82 0.215,1.434 0.573,1.887c0.434,0.548 1.11,0.984 1.912,1.331c0.855,0.372 1.551,0.965 2.036,1.703c0.495,0.753 0.768,1.627 0.768,2.543c0,0.915 -0.274,1.788 -0.768,2.541c-0.486,0.739 -1.181,1.331 -2.036,1.702c-0.802,0.347 -1.477,0.784 -1.912,1.334c-0.358,0.453 -0.573,1.067 -0.573,1.886l0,33.438c0,5.406 -2.68,8.12 -6.701,9.485c-3.281,1.114 -7.251,1.114 -11.222,1.114c-1.657,0 -3,-1.343 -3,-3c0,-1.657 1.343,-3 3,-3c3.493,0 6.986,0 9.3,-0.786c1.574,-0.534 2.623,-1.621 2.623,-3.813l0,-33.438c0,-2.263 0.708,-4.099 1.886,-5.59c0.574,-0.725 1.249,-1.345 1.997,-1.874c-0.748,-0.528 -1.423,-1.148 -1.997,-1.873c-1.178,-1.49 -1.886,-3.326 -1.886,-5.59l0,-33.439c0,-2.189 -1.049,-3.276 -2.623,-3.811c-2.315,-0.786 -5.807,-0.786 -9.3,-0.786zm-127.012,-6c1.656,0 3,1.343 3,3c0,1.656 -1.344,3 -3,3c-3.494,0 -6.986,0 -9.3,0.786c-1.574,0.535 -2.623,1.622 -2.623,3.811l0,33.439c0,2.264 -0.708,4.1 -1.887,5.59c-0.573,0.725 -1.248,1.345 -1.997,1.873c0.749,0.529 1.424,1.149 1.997,1.874c1.179,1.491 1.887,3.327 1.887,5.59l0,33.438c0,2.192 1.049,3.279 2.623,3.813c2.314,0.786 5.806,0.786 9.3,0.786c1.656,0 3,1.343 3,3c0,1.657 -1.344,3 -3,3c-3.971,0 -7.941,0 -11.222,-1.114c-4.021,-1.365 -6.701,-4.079 -6.701,-9.485l0,-33.438c0,-0.819 -0.216,-1.433 -0.574,-1.886c-0.434,-0.55 -1.11,-0.987 -1.912,-1.334c-0.854,-0.371 -1.549,-0.963 -2.035,-1.702c-0.495,-0.753 -0.768,-1.626 -0.768,-2.541c0,-0.916 0.273,-1.79 0.767,-2.543c0.486,-0.739 1.182,-1.332 2.036,-1.703c0.802,-0.347 1.478,-0.783 1.912,-1.331c0.358,-0.453 0.574,-1.067 0.574,-1.887l0,-33.439c0,-5.404 2.68,-8.117 6.701,-9.482c3.28,-1.114 7.251,-1.115 11.222,-1.115zm26.221,12.449c-1.104,0 -2,-0.896 -2,-2c0,-1.105 0.896,-2 2,-2l74.569,0c1.104,0 2,0.895 2,2c0,1.104 -0.896,2 -2,2l-74.569,0zm-74.76,-77.489l224.09,0c5.216,0 9.955,2.132 13.389,5.565c3.434,3.434 5.565,8.174 5.565,13.39l0,172.076c0,5.216 -2.131,9.955 -5.565,13.389c-3.434,3.434 -8.173,5.566 -13.389,5.566l-224.09,0c-5.216,0 -9.955,-2.132 -13.389,-5.566c-3.434,-3.434 -5.565,-8.173 -5.565,-13.389l0,-172.076c0,-5.216 2.131,-9.956 5.565,-13.39c3.434,-3.433 8.173,-5.565 13.389,-5.565zm224.09,6l-224.09,0c-3.559,0 -6.797,1.458 -9.147,3.808c-2.349,2.349 -3.808,5.587 -3.808,9.147l0,21.593l250,0l0,-21.593c0,-3.56 -1.459,-6.798 -3.808,-9.147c-2.35,-2.35 -5.588,-3.808 -9.147,-3.808zm-237.045,38.548l0,146.483c0,3.559 1.459,6.797 3.808,9.147c2.35,2.349 5.588,3.808 9.147,3.808l224.09,0c3.559,0 6.797,-1.459 9.147,-3.808c2.349,-2.35 3.808,-5.588 3.808,-9.147l0,-146.483l-250,0zm80.066,-31.004c2.371,0 4.519,0.962 6.073,2.516c1.554,1.554 2.516,3.701 2.516,6.073c0,2.371 -0.962,4.519 -2.516,6.072c-1.554,1.554 -3.702,2.516 -6.073,2.516c-2.368,0 -4.513,-0.961 -6.067,-2.516l-0.006,0c-1.554,-1.553 -2.515,-3.701 -2.515,-6.072c0,-2.372 0.961,-4.519 2.515,-6.073l0.006,0c1.554,-1.555 3.699,-2.516 6.067,-2.516zm3.952,4.636c-1.01,-1.01 -2.408,-1.636 -3.952,-1.636c-1.546,0 -2.944,0.624 -3.955,1.634l0.003,0.002c-1.011,1.011 -1.636,2.409 -1.636,3.953c0,1.543 0.625,2.941 1.636,3.952l-0.003,0.002c1.011,1.01 2.409,1.634 3.955,1.634c1.544,0 2.942,-0.626 3.952,-1.636c1.011,-1.011 1.636,-2.409 1.636,-3.952c0,-1.544 -0.625,-2.942 -1.636,-3.953zm-30.951,-4.636c2.372,0 4.519,0.962 6.073,2.516c1.554,1.554 2.515,3.701 2.515,6.073c0,2.371 -0.961,4.519 -2.515,6.072c-1.554,1.554 -3.701,2.516 -6.073,2.516c-2.371,0 -4.519,-0.962 -6.073,-2.516c-1.554,-1.553 -2.515,-3.701 -2.515,-6.072c0,-2.372 0.961,-4.519 2.515,-6.073c1.554,-1.554 3.702,-2.516 6.073,-2.516zm3.952,4.636c-1.01,-1.01 -2.408,-1.636 -3.952,-1.636c-1.544,0 -2.941,0.626 -3.952,1.636c-1.011,1.011 -1.636,2.409 -1.636,3.953c0,1.543 0.625,2.941 1.636,3.952c1.011,1.01 2.408,1.636 3.952,1.636c1.544,0 2.942,-0.626 3.952,-1.636c1.011,-1.011 1.636,-2.409 1.636,-3.952c0,-1.544 -0.625,-2.942 -1.636,-3.953zm-26.999,0c-1.01,-1.01 -2.408,-1.636 -3.952,-1.636c-1.546,0 -2.944,0.624 -3.955,1.634l0.003,0.002c-1.011,1.011 -1.636,2.409 -1.636,3.953c0,1.543 0.625,2.941 1.636,3.952l-0.003,0.002c1.011,1.01 2.409,1.634 3.955,1.634c1.544,0 2.942,-0.626 3.952,-1.636c1.011,-1.011 1.636,-2.409 1.636,-3.952c0,-1.544 -0.625,-2.942 -1.636,-3.953z" fill="black" id="svg_2"/>
 </g>
</svg>